{"images":[],"accessors":[{"componentType":5126,"min":[-0.5,-0.5,-0.5],"byteOffset":0,"bufferView":0,"max":[0.5,0.5,0.5],"count":36,"type":"VEC3"},{"componentType":5126,"byteOffset":0,"bufferView":1,"count":36,"type":"VEC3"},{"componentType":5126,"byteOffset":0,"bufferView":2,"count":36,"type":"VEC2"}],"extensionsUsed":["KHR_texture_transform"],"textures":[],"buffers":[{"byteLength":1152,"uri":"buffers.bin"}],"bufferViews":[{"byteOffset":0,"byteLength":432,"buffer":0},{"byteOffset":432,"byteLength":432,"buffer":0},{"byteOffset":864,"byteLength":288,"buffer":0}],"samplers":[{"minFilter":9987,"wrapT":10497,"wrapS":10497,"magFilter":9729}],"extensionsRequired":["KHR_texture_transform"],"scene":0,"nodes":[{"name":"Cube_Unindexed","translation":[0.0,0.0,0.0],"mesh":0}],"materials":[{"pbrMetallicRoughness":{"metallicFactor":0.0,"roughnessFactor":0.5,"baseColorFactor":[1.0,1.0,1.0,1.0]}}],"scenes":[{"nodes":[0]}],"asset":{"generator":"phire.Editor (unreleased)","version":"2.0"},"meshes":[{"primitives":[{"mode":4,"material":0,"attributes":{"POSITION":0,"TEXCOORD_0":2,"NORMAL":1}}]}]}