{"images":[{"uri":"textures\/wood_decking_3_normal.png"},{"uri":"textures\/wood_decking_3_albedo.png"}],"accessors":[{"componentType":5126,"min":[-11.0,0.0,-11.0],"byteOffset":0,"bufferView":0,"max":[9.0,0.19999999,6.0],"count":147,"type":"VEC3"},{"componentType":5126,"byteOffset":0,"bufferView":1,"count":147,"type":"VEC3"},{"componentType":5126,"byteOffset":0,"bufferView":2,"count":147,"type":"VEC4"},{"componentType":5126,"byteOffset":0,"bufferView":3,"count":147,"type":"VEC2"}],"extensionsUsed":["KHR_texture_transform"],"textures":[{"source":0,"sampler":0},{"source":1,"sampler":0}],"buffers":[{"byteLength":7056,"uri":"buffers.bin"}],"bufferViews":[{"byteOffset":0,"byteLength":1764,"buffer":0},{"byteOffset":1764,"byteLength":1764,"buffer":0},{"byteOffset":3528,"byteLength":2352,"buffer":0},{"byteOffset":5880,"byteLength":1176,"buffer":0}],"samplers":[{"minFilter":9987,"wrapT":10497,"wrapS":10497,"magFilter":9729}],"extensionsRequired":["KHR_texture_transform"],"scene":0,"nodes":[{"mesh":0}],"materials":[{"normalTexture":{"extensions":{"KHR_texture_transform":{"offset":[0.0,0.0],"scale":[4.0,4.0]}},"index":0},"pbrMetallicRoughness":{"baseColorTexture":{"extensions":{"KHR_texture_transform":{"offset":[0.0,0.0],"scale":[4.0,4.0]}},"index":1},"metallicFactor":0.0,"roughnessFactor":0.5,"baseColorFactor":[1.0,1.0,1.0,1.0]}}],"scenes":[{"nodes":[0]}],"asset":{"generator":"phire.Editor (unreleased)","version":"2.0"},"meshes":[{"primitives":[{"mode":4,"material":0,"attributes":{"POSITION":0,"TANGENT":2,"TEXCOORD_0":3,"NORMAL":1}}]}]}